<svg width="92" height="32" viewBox="0 0 92 32" fill="none" xmlns="http://www.w3.org/2000/svg">
    <path d="M3.7 10.05C3.23333 10.05 2.79667 9.95333 2.39 9.76C1.98333 9.56667 1.62667 9.3 1.32 8.96C1.02 8.62 0.783333 8.23333 0.61 7.8C0.443333 7.36667 0.36 6.90667 0.36 6.42C0.36 5.93333 0.443333 5.47667 0.61 5.05C0.783333 4.62333 1.02 4.24333 1.32 3.91C1.62667 3.57667 1.98333 3.31667 2.39 3.13C2.80333 2.94333 3.25333 2.85 3.74 2.85C4.41333 2.85 4.98 2.99333 5.44 3.28C5.90667 3.56 6.25667 3.93333 6.49 4.4L5.63 5.02C5.44333 4.63333 5.17667 4.34333 4.83 4.15C4.49 3.95667 4.11667 3.86 3.71 3.86C3.37667 3.86 3.07333 3.93 2.8 4.07C2.52667 4.21 2.29 4.40333 2.09 4.65C1.89667 4.89 1.75 5.16667 1.65 5.48C1.55 5.78667 1.5 6.11 1.5 6.45C1.5 6.81 1.55667 7.14667 1.67 7.46C1.78333 7.77333 1.94333 8.05 2.15 8.29C2.35667 8.52333 2.6 8.70667 2.88 8.84C3.16 8.97333 3.46333 9.04 3.79 9.04C4.17667 9.04 4.54333 8.94333 4.89 8.75C5.24333 8.55 5.57333 8.25333 5.88 7.86V9C5.26 9.7 4.53333 10.05 3.7 10.05ZM5.77 7.24H4.28V6.41H6.71V10H5.77V7.24ZM12.8575 9.01V10H7.9875V2.9H12.7675V3.89H9.1075V5.91H12.2775V6.84H9.1075V9.01H12.8575ZM19.2229 3.89H16.8629V10H15.7329V3.89H13.3629V2.9H19.2229V3.89ZM22.343 10V2.9H23.463V10H22.343ZM30.2776 3.89H27.9176V10H26.7876V3.89H24.4176V2.9H30.2776V3.89ZM36.3477 10.05C35.8343 10.05 35.371 9.95 34.9577 9.75C34.5443 9.55 34.1877 9.28 33.8877 8.94C33.5877 8.59333 33.3543 8.20667 33.1877 7.78C33.0277 7.34667 32.9477 6.90333 32.9477 6.45C32.9477 5.97667 33.0343 5.52667 33.2077 5.1C33.381 4.66667 33.621 4.28333 33.9277 3.95C34.2343 3.61 34.5943 3.34333 35.0077 3.15C35.4277 2.95 35.881 2.85 36.3677 2.85C36.8743 2.85 37.3343 2.95333 37.7477 3.16C38.1677 3.36667 38.5243 3.64333 38.8177 3.99C39.1177 4.33667 39.3477 4.72333 39.5077 5.15C39.6743 5.57667 39.7577 6.01333 39.7577 6.46C39.7577 6.93333 39.671 7.38667 39.4977 7.82C39.331 8.24667 39.0943 8.63 38.7877 8.97C38.481 9.30333 38.1177 9.56667 37.6977 9.76C37.2843 9.95333 36.8343 10.05 36.3477 10.05ZM34.0877 6.45C34.0877 6.78333 34.141 7.10667 34.2477 7.42C34.3543 7.73333 34.5043 8.01333 34.6977 8.26C34.8977 8.5 35.1377 8.69 35.4177 8.83C35.6977 8.97 36.011 9.04 36.3577 9.04C36.7177 9.04 37.0377 8.96667 37.3177 8.82C37.5977 8.67333 37.831 8.47667 38.0177 8.23C38.211 7.97667 38.3577 7.69667 38.4577 7.39C38.5577 7.07667 38.6077 6.76333 38.6077 6.45C38.6077 6.11667 38.5543 5.79667 38.4477 5.49C38.3477 5.17667 38.1977 4.9 37.9977 4.66C37.7977 4.41333 37.5577 4.22 37.2777 4.08C37.0043 3.94 36.6977 3.87 36.3577 3.87C35.9977 3.87 35.6777 3.94333 35.3977 4.09C35.1177 4.23667 34.881 4.43333 34.6877 4.68C34.4943 4.92667 34.3443 5.20333 34.2377 5.51C34.1377 5.81667 34.0877 6.13 34.0877 6.45ZM42.0372 4.98V10H40.9172V2.9H41.8372L45.8572 8.03V2.91H46.9872V10H46.0072L42.0372 4.98Z"
          fill="currentColor"/>
    <path d="M5.92 28.08C5.17333 28.08 4.47467 27.9253 3.824 27.616C3.17333 27.3067 2.60267 26.88 2.112 26.336C1.632 25.792 1.25333 25.1733 0.976 24.48C0.709333 23.7867 0.576 23.0507 0.576 22.272C0.576 21.4933 0.709333 20.7627 0.976 20.08C1.25333 19.3973 1.632 18.7893 2.112 18.256C2.60267 17.7227 3.17333 17.3067 3.824 17.008C4.48533 16.7093 5.20533 16.56 5.984 16.56C7.06133 16.56 7.968 16.7893 8.704 17.248C9.45067 17.696 10.0107 18.2933 10.384 19.04L9.008 20.032C8.70933 19.4133 8.28267 18.9493 7.728 18.64C7.184 18.3307 6.58667 18.176 5.936 18.176C5.40267 18.176 4.91733 18.288 4.48 18.512C4.04267 18.736 3.664 19.0453 3.344 19.44C3.03467 19.824 2.8 20.2667 2.64 20.768C2.48 21.2587 2.4 21.776 2.4 22.32C2.4 22.896 2.49067 23.4347 2.672 23.936C2.85333 24.4373 3.10933 24.88 3.44 25.264C3.77067 25.6373 4.16 25.9307 4.608 26.144C5.056 26.3573 5.54133 26.464 6.064 26.464C6.68267 26.464 7.26933 26.3093 7.824 26C8.38933 25.68 8.91733 25.2053 9.408 24.576V26.4C8.416 27.52 7.25333 28.08 5.92 28.08ZM9.232 23.584H6.848V22.256H10.736V28H9.232V23.584ZM16.316 28.16C15.6547 28.16 15.0627 28.048 14.54 27.824C14.0173 27.5893 13.564 27.2693 13.18 26.864C12.8067 26.4587 12.5187 26 12.316 25.488C12.1133 24.9653 12.012 24.4107 12.012 23.824C12.012 23.2373 12.1133 22.6827 12.316 22.16C12.5187 21.6373 12.8067 21.1787 13.18 20.784C13.564 20.3787 14.0173 20.064 14.54 19.84C15.0733 19.6053 15.6653 19.488 16.316 19.488C16.9667 19.488 17.5533 19.6053 18.076 19.84C18.6093 20.064 19.0627 20.3787 19.436 20.784C19.82 21.1787 20.1133 21.6373 20.316 22.16C20.5187 22.6827 20.62 23.2373 20.62 23.824C20.62 24.4107 20.5187 24.9653 20.316 25.488C20.1133 26 19.82 26.4587 19.436 26.864C19.0627 27.2693 18.6093 27.5893 18.076 27.824C17.5533 28.048 16.9667 28.16 16.316 28.16ZM13.82 23.84C13.82 24.3733 13.932 24.8533 14.156 25.28C14.38 25.7067 14.6787 26.0427 15.052 26.288C15.4253 26.5333 15.8467 26.656 16.316 26.656C16.7747 26.656 17.1907 26.5333 17.564 26.288C17.948 26.032 18.252 25.6907 18.476 25.264C18.7 24.8267 18.812 24.3467 18.812 23.824C18.812 23.2907 18.7 22.8107 18.476 22.384C18.252 21.9573 17.948 21.6213 17.564 21.376C17.1907 21.12 16.7747 20.992 16.316 20.992C15.8467 20.992 15.4253 21.12 15.052 21.376C14.6787 21.632 14.38 21.9733 14.156 22.4C13.932 22.816 13.82 23.296 13.82 23.84ZM25.941 28.16C25.2797 28.16 24.6877 28.048 24.165 27.824C23.6423 27.5893 23.189 27.2693 22.805 26.864C22.4317 26.4587 22.1437 26 21.941 25.488C21.7383 24.9653 21.637 24.4107 21.637 23.824C21.637 23.2373 21.7383 22.6827 21.941 22.16C22.1437 21.6373 22.4317 21.1787 22.805 20.784C23.189 20.3787 23.6423 20.064 24.165 19.84C24.6983 19.6053 25.2903 19.488 25.941 19.488C26.5917 19.488 27.1783 19.6053 27.701 19.84C28.2343 20.064 28.6877 20.3787 29.061 20.784C29.445 21.1787 29.7383 21.6373 29.941 22.16C30.1437 22.6827 30.245 23.2373 30.245 23.824C30.245 24.4107 30.1437 24.9653 29.941 25.488C29.7383 26 29.445 26.4587 29.061 26.864C28.6877 27.2693 28.2343 27.5893 27.701 27.824C27.1783 28.048 26.5917 28.16 25.941 28.16ZM23.445 23.84C23.445 24.3733 23.557 24.8533 23.781 25.28C24.005 25.7067 24.3037 26.0427 24.677 26.288C25.0503 26.5333 25.4717 26.656 25.941 26.656C26.3997 26.656 26.8157 26.5333 27.189 26.288C27.573 26.032 27.877 25.6907 28.101 25.264C28.325 24.8267 28.437 24.3467 28.437 23.824C28.437 23.2907 28.325 22.8107 28.101 22.384C27.877 21.9573 27.573 21.6213 27.189 21.376C26.8157 21.12 26.3997 20.992 25.941 20.992C25.4717 20.992 25.0503 21.12 24.677 21.376C24.3037 21.632 24.005 21.9733 23.781 22.4C23.557 22.816 23.445 23.296 23.445 23.84ZM35.118 28.08C34.5527 28.08 34.0353 27.968 33.566 27.744C33.0967 27.5093 32.6913 27.1947 32.35 26.8C32.0193 26.4053 31.758 25.952 31.566 25.44C31.3847 24.928 31.294 24.3893 31.294 23.824C31.294 23.2267 31.39 22.6667 31.582 22.144C31.774 21.6213 32.0407 21.1627 32.382 20.768C32.734 20.3627 33.1447 20.048 33.614 19.824C34.0833 19.6 34.606 19.488 35.182 19.488C35.854 19.488 36.4407 19.648 36.942 19.968C37.454 20.288 37.8753 20.704 38.206 21.216V19.632H39.758V27.76C39.758 28.5707 39.5607 29.2587 39.166 29.824C38.782 30.3893 38.254 30.8213 37.582 31.12C36.91 31.4187 36.1527 31.568 35.31 31.568C34.382 31.568 33.614 31.408 33.006 31.088C32.398 30.768 31.8807 30.3307 31.454 29.776L32.446 28.848C32.766 29.296 33.1767 29.6373 33.678 29.872C34.19 30.1067 34.734 30.224 35.31 30.224C35.79 30.224 36.2327 30.1333 36.638 29.952C37.054 29.7813 37.3847 29.5093 37.63 29.136C37.8753 28.7733 37.998 28.3147 37.998 27.76V26.48C37.6993 26.9813 37.2887 27.376 36.766 27.664C36.2433 27.9413 35.694 28.08 35.118 28.08ZM35.694 26.656C35.9607 26.656 36.2167 26.6133 36.462 26.528C36.7073 26.432 36.9313 26.3093 37.134 26.16C37.3473 26 37.5287 25.824 37.678 25.632C37.8273 25.4293 37.934 25.216 37.998 24.992V22.8C37.8593 22.4373 37.662 22.1227 37.406 21.856C37.15 21.5787 36.862 21.3653 36.542 21.216C36.222 21.0667 35.8967 20.992 35.566 20.992C35.182 20.992 34.8353 21.0773 34.526 21.248C34.2273 21.408 33.9713 21.6267 33.758 21.904C33.5447 22.1707 33.3793 22.4747 33.262 22.816C33.1447 23.1573 33.086 23.5093 33.086 23.872C33.086 24.256 33.15 24.6133 33.278 24.944C33.4167 25.2747 33.6033 25.5733 33.838 25.84C34.0727 26.096 34.35 26.2987 34.67 26.448C34.99 26.5867 35.3313 26.656 35.694 26.656ZM41.8845 16.32H43.6445V25.584C43.6445 26.0107 43.7085 26.2827 43.8365 26.4C43.9645 26.5173 44.1245 26.576 44.3165 26.576C44.5298 26.576 44.7272 26.5547 44.9085 26.512C45.1005 26.4693 45.2658 26.416 45.4045 26.352L45.6605 27.744C45.4045 27.8507 45.1005 27.9413 44.7485 28.016C44.3965 28.0907 44.0818 28.128 43.8045 28.128C43.2072 28.128 42.7378 27.9627 42.3965 27.632C42.0552 27.2907 41.8845 26.8213 41.8845 26.224V16.32ZM50.473 28.16C49.8223 28.16 49.2303 28.048 48.697 27.824C48.1743 27.5893 47.721 27.2747 47.337 26.88C46.953 26.4747 46.6543 26.016 46.441 25.504C46.2383 24.9813 46.137 24.4267 46.137 23.84C46.137 23.0507 46.3183 22.3307 46.681 21.68C47.0437 21.0187 47.5503 20.4907 48.201 20.096C48.8517 19.6907 49.6143 19.488 50.489 19.488C51.3637 19.488 52.1157 19.6907 52.745 20.096C53.385 20.4907 53.881 21.0133 54.233 21.664C54.585 22.3147 54.761 23.0133 54.761 23.76C54.761 23.888 54.7557 24.0107 54.745 24.128C54.7343 24.2347 54.7237 24.3253 54.713 24.4H48.009C48.041 24.8907 48.1743 25.3227 48.409 25.696C48.6543 26.0587 48.9637 26.3467 49.337 26.56C49.7103 26.7627 50.1103 26.864 50.537 26.864C51.0063 26.864 51.449 26.7467 51.865 26.512C52.2917 26.2773 52.5797 25.968 52.729 25.584L54.233 26.016C54.0517 26.4213 53.7743 26.7893 53.401 27.12C53.0383 27.44 52.6063 27.696 52.105 27.888C51.6037 28.0693 51.0597 28.16 50.473 28.16ZM47.961 23.232H53.017C52.985 22.752 52.8463 22.3307 52.601 21.968C52.3663 21.5947 52.0623 21.3067 51.689 21.104C51.3263 20.8907 50.921 20.784 50.473 20.784C50.0357 20.784 49.6303 20.8907 49.257 21.104C48.8943 21.3067 48.5957 21.5947 48.361 21.968C48.1263 22.3307 47.993 22.752 47.961 23.232ZM60.3738 28V16.64H65.1418C65.6538 16.64 66.1231 16.7467 66.5498 16.96C66.9764 17.1733 67.3498 17.456 67.6698 17.808C67.9898 18.16 68.2351 18.5547 68.4058 18.992C68.5764 19.4293 68.6618 19.8773 68.6618 20.336C68.6618 20.9653 68.5178 21.568 68.2298 22.144C67.9524 22.7093 67.5524 23.168 67.0298 23.52C66.5178 23.872 65.9204 24.048 65.2378 24.048H62.1658V28H60.3738ZM62.1658 22.464H65.1258C65.4671 22.464 65.7658 22.3733 66.0218 22.192C66.2778 22 66.4751 21.744 66.6138 21.424C66.7631 21.104 66.8378 20.7413 66.8378 20.336C66.8378 19.92 66.7524 19.552 66.5818 19.232C66.4111 18.912 66.1871 18.6667 65.9098 18.496C65.6431 18.3147 65.3498 18.224 65.0298 18.224H62.1658V22.464ZM70.1345 16.32H71.8945V25.584C71.8945 26.0107 71.9585 26.2827 72.0865 26.4C72.2145 26.5173 72.3745 26.576 72.5665 26.576C72.7798 26.576 72.9772 26.5547 73.1585 26.512C73.3505 26.4693 73.5158 26.416 73.6545 26.352L73.9105 27.744C73.6545 27.8507 73.3505 27.9413 72.9985 28.016C72.6465 28.0907 72.3318 28.128 72.0545 28.128C71.4572 28.128 70.9878 27.9627 70.6465 27.632C70.3052 27.2907 70.1345 26.8213 70.1345 26.224V16.32ZM74.323 25.552C74.323 25.0187 74.4723 24.5547 74.771 24.16C75.0803 23.7547 75.5017 23.4453 76.035 23.232C76.5683 23.008 77.187 22.896 77.891 22.896C78.2643 22.896 78.643 22.9227 79.027 22.976C79.4217 23.0293 79.7683 23.1147 80.067 23.232V22.704C80.067 22.1173 79.891 21.6587 79.539 21.328C79.187 20.9973 78.6803 20.832 78.019 20.832C77.5497 20.832 77.107 20.9173 76.691 21.088C76.275 21.248 75.8323 21.4773 75.363 21.776L74.771 20.592C75.3257 20.2187 75.8803 19.9413 76.435 19.76C77.0003 19.5787 77.5923 19.488 78.211 19.488C79.331 19.488 80.211 19.7867 80.851 20.384C81.5017 20.9707 81.827 21.808 81.827 22.896V26.016C81.827 26.2187 81.859 26.3627 81.923 26.448C81.9977 26.5333 82.1203 26.5813 82.291 26.592V28C82.131 28.032 81.987 28.0533 81.859 28.064C81.731 28.0747 81.6243 28.08 81.539 28.08C81.1657 28.08 80.883 27.9893 80.691 27.808C80.499 27.6267 80.387 27.4133 80.355 27.168L80.307 26.688C79.9443 27.1573 79.4803 27.52 78.915 27.776C78.3497 28.032 77.779 28.16 77.203 28.16C76.6483 28.16 76.1523 28.048 75.715 27.824C75.2777 27.5893 74.9363 27.2747 74.691 26.88C74.4457 26.4853 74.323 26.0427 74.323 25.552ZM79.651 26.064C79.779 25.9253 79.8803 25.7867 79.955 25.648C80.0297 25.5093 80.067 25.3867 80.067 25.28V24.32C79.7683 24.2027 79.4537 24.1173 79.123 24.064C78.7923 24 78.467 23.968 78.147 23.968C77.507 23.968 76.9843 24.096 76.579 24.352C76.1843 24.608 75.987 24.96 75.987 25.408C75.987 25.6533 76.051 25.888 76.179 26.112C76.3177 26.336 76.5097 26.5173 76.755 26.656C77.011 26.7947 77.3257 26.864 77.699 26.864C78.083 26.864 78.451 26.7893 78.803 26.64C79.155 26.4907 79.4377 26.2987 79.651 26.064ZM83.9534 29.968C84.1134 29.9893 84.268 30.0107 84.4174 30.032C84.5774 30.064 84.7054 30.08 84.8014 30.08C84.9827 30.08 85.1374 30.0213 85.2654 29.904C85.404 29.7973 85.5427 29.5947 85.6814 29.296C85.82 28.9973 85.9907 28.5653 86.1934 28L82.7534 19.632H84.5934L87.1534 26.208L89.4254 19.632H91.1214L87.3294 29.936C87.212 30.2453 87.0414 30.528 86.8174 30.784C86.5934 31.0507 86.316 31.2587 85.9854 31.408C85.6547 31.5573 85.2654 31.632 84.8174 31.632C84.6894 31.632 84.556 31.6213 84.4174 31.6C84.2787 31.5787 84.124 31.5467 83.9534 31.504V29.968Z"
          fill="currentColor"/>
</svg>
