<svg width="81" height="32" viewBox="0 0 81 32" fill="none" xmlns="http://www.w3.org/2000/svg">
    <path d="M0.8 10V2.9H3.32C4.08667 2.9 4.72667 3.06 5.24 3.38C5.75333 3.69333 6.13667 4.12 6.39 4.66C6.65 5.19333 6.78 5.78667 6.78 6.44C6.78 7.16 6.63667 7.78667 6.35 8.32C6.07 8.85333 5.67 9.26667 5.15 9.56C4.63 9.85333 4.02 10 3.32 10H0.8ZM5.64 6.44C5.64 5.94 5.54667 5.5 5.36 5.12C5.18 4.73333 4.91667 4.43333 4.57 4.22C4.23 4 3.81333 3.89 3.32 3.89H1.92V9.01H3.32C3.82 9.01 4.24 8.89667 4.58 8.67C4.92667 8.44333 5.19 8.13667 5.37 7.75C5.55 7.36333 5.64 6.92667 5.64 6.44ZM10.1682 10.1C9.75487 10.1 9.38487 10.03 9.0582 9.89C8.73154 9.74333 8.4482 9.54333 8.2082 9.29C7.97487 9.03667 7.79487 8.75 7.6682 8.43C7.54154 8.10333 7.4782 7.75667 7.4782 7.39C7.4782 7.02333 7.54154 6.67667 7.6682 6.35C7.79487 6.02333 7.97487 5.73667 8.2082 5.49C8.4482 5.23667 8.73154 5.04 9.0582 4.9C9.39154 4.75333 9.76154 4.68 10.1682 4.68C10.5749 4.68 10.9415 4.75333 11.2682 4.9C11.6015 5.04 11.8849 5.23667 12.1182 5.49C12.3582 5.73667 12.5415 6.02333 12.6682 6.35C12.7949 6.67667 12.8582 7.02333 12.8582 7.39C12.8582 7.75667 12.7949 8.10333 12.6682 8.43C12.5415 8.75 12.3582 9.03667 12.1182 9.29C11.8849 9.54333 11.6015 9.74333 11.2682 9.89C10.9415 10.03 10.5749 10.1 10.1682 10.1ZM8.6082 7.4C8.6082 7.73333 8.6782 8.03333 8.8182 8.3C8.9582 8.56667 9.14487 8.77667 9.3782 8.93C9.61154 9.08333 9.87487 9.16 10.1682 9.16C10.4549 9.16 10.7149 9.08333 10.9482 8.93C11.1882 8.77 11.3782 8.55667 11.5182 8.29C11.6582 8.01667 11.7282 7.71667 11.7282 7.39C11.7282 7.05667 11.6582 6.75667 11.5182 6.49C11.3782 6.22333 11.1882 6.01333 10.9482 5.86C10.7149 5.7 10.4549 5.62 10.1682 5.62C9.87487 5.62 9.61154 5.7 9.3782 5.86C9.14487 6.02 8.9582 6.23333 8.8182 6.5C8.6782 6.76 8.6082 7.06 8.6082 7.4ZM20.178 4.77H21.228L19.028 10H18.088L17.148 7.64L16.208 10H15.268L13.058 4.77H14.108L15.788 8.93L16.528 7L15.628 4.78H16.558L17.148 6.41L17.728 4.78H18.658L17.768 7L18.508 8.93L20.178 4.77ZM26.6488 10H25.5488V7.07C25.5488 6.58333 25.4688 6.22667 25.3088 6C25.1555 5.77333 24.9255 5.66 24.6188 5.66C24.4055 5.66 24.1922 5.71333 23.9788 5.82C23.7722 5.92667 23.5855 6.07333 23.4188 6.26C23.2522 6.44 23.1322 6.65 23.0588 6.89V10H21.9588V4.77H22.9588V5.82C23.0922 5.58667 23.2655 5.38667 23.4788 5.22C23.6988 5.04667 23.9455 4.91333 24.2188 4.82C24.4922 4.72667 24.7822 4.68 25.0888 4.68C25.4022 4.68 25.6588 4.73667 25.8588 4.85C26.0655 4.96333 26.2255 5.12 26.3388 5.32C26.4588 5.51333 26.5388 5.74 26.5788 6C26.6255 6.25333 26.6488 6.52333 26.6488 6.81V10ZM27.9356 2.7H29.0356V8.49C29.0356 8.75667 29.0756 8.92667 29.1556 9C29.2356 9.07333 29.3356 9.11 29.4556 9.11C29.589 9.11 29.7123 9.09667 29.8256 9.07C29.9456 9.04333 30.049 9.01 30.1356 8.97L30.2956 9.84C30.1356 9.90667 29.9456 9.96333 29.7256 10.01C29.5056 10.0567 29.309 10.08 29.1356 10.08C28.7623 10.08 28.469 9.97667 28.2556 9.77C28.0423 9.55667 27.9356 9.26333 27.9356 8.89V2.7ZM33.2834 10.1C32.8701 10.1 32.5001 10.03 32.1734 9.89C31.8468 9.74333 31.5634 9.54333 31.3234 9.29C31.0901 9.03667 30.9101 8.75 30.7834 8.43C30.6568 8.10333 30.5934 7.75667 30.5934 7.39C30.5934 7.02333 30.6568 6.67667 30.7834 6.35C30.9101 6.02333 31.0901 5.73667 31.3234 5.49C31.5634 5.23667 31.8468 5.04 32.1734 4.9C32.5068 4.75333 32.8768 4.68 33.2834 4.68C33.6901 4.68 34.0568 4.75333 34.3834 4.9C34.7168 5.04 35.0001 5.23667 35.2334 5.49C35.4734 5.73667 35.6568 6.02333 35.7834 6.35C35.9101 6.67667 35.9734 7.02333 35.9734 7.39C35.9734 7.75667 35.9101 8.10333 35.7834 8.43C35.6568 8.75 35.4734 9.03667 35.2334 9.29C35.0001 9.54333 34.7168 9.74333 34.3834 9.89C34.0568 10.03 33.6901 10.1 33.2834 10.1ZM31.7234 7.4C31.7234 7.73333 31.7934 8.03333 31.9334 8.3C32.0734 8.56667 32.2601 8.77667 32.4934 8.93C32.7268 9.08333 32.9901 9.16 33.2834 9.16C33.5701 9.16 33.8301 9.08333 34.0634 8.93C34.3034 8.77 34.4934 8.55667 34.6334 8.29C34.7734 8.01667 34.8434 7.71667 34.8434 7.39C34.8434 7.05667 34.7734 6.75667 34.6334 6.49C34.4934 6.22333 34.3034 6.01333 34.0634 5.86C33.8301 5.7 33.5701 5.62 33.2834 5.62C32.9901 5.62 32.7268 5.7 32.4934 5.86C32.2601 6.02 32.0734 6.23333 31.9334 6.5C31.7934 6.76 31.7234 7.06 31.7234 7.4ZM36.5691 8.47C36.5691 8.13667 36.6624 7.84667 36.8491 7.6C37.0424 7.34667 37.3057 7.15333 37.6391 7.02C37.9724 6.88 38.3591 6.81 38.7991 6.81C39.0324 6.81 39.2691 6.82667 39.5091 6.86C39.7557 6.89333 39.9724 6.94667 40.1591 7.02V6.69C40.1591 6.32333 40.0491 6.03667 39.8291 5.83C39.6091 5.62333 39.2924 5.52 38.8791 5.52C38.5857 5.52 38.3091 5.57333 38.0491 5.68C37.7891 5.78 37.5124 5.92333 37.2191 6.11L36.8491 5.37C37.1957 5.13667 37.5424 4.96333 37.8891 4.85C38.2424 4.73667 38.6124 4.68 38.9991 4.68C39.6991 4.68 40.2491 4.86667 40.6491 5.24C41.0557 5.60667 41.2591 6.13 41.2591 6.81V8.76C41.2591 8.88667 41.2791 8.97667 41.3191 9.03C41.3657 9.08333 41.4424 9.11333 41.5491 9.12V10C41.4491 10.02 41.3591 10.0333 41.2791 10.04C41.1991 10.0467 41.1324 10.05 41.0791 10.05C40.8457 10.05 40.6691 9.99333 40.5491 9.88C40.4291 9.76667 40.3591 9.63333 40.3391 9.48L40.3091 9.18C40.0824 9.47333 39.7924 9.7 39.4391 9.86C39.0857 10.02 38.7291 10.1 38.3691 10.1C38.0224 10.1 37.7124 10.03 37.4391 9.89C37.1657 9.74333 36.9524 9.54667 36.7991 9.3C36.6457 9.05333 36.5691 8.77667 36.5691 8.47ZM39.8991 8.79C39.9791 8.70333 40.0424 8.61667 40.0891 8.53C40.1357 8.44333 40.1591 8.36667 40.1591 8.3V7.7C39.9724 7.62667 39.7757 7.57333 39.5691 7.54C39.3624 7.5 39.1591 7.48 38.9591 7.48C38.5591 7.48 38.2324 7.56 37.9791 7.72C37.7324 7.88 37.6091 8.1 37.6091 8.38C37.6091 8.53333 37.6491 8.68 37.7291 8.82C37.8157 8.96 37.9357 9.07333 38.0891 9.16C38.2491 9.24667 38.4457 9.29 38.6791 9.29C38.9191 9.29 39.1491 9.24333 39.3691 9.15C39.5891 9.05667 39.7657 8.93667 39.8991 8.79ZM42.2636 7.39C42.2636 6.89 42.3636 6.43667 42.5636 6.03C42.7703 5.61667 43.0503 5.29 43.4036 5.05C43.7569 4.80333 44.1636 4.68 44.6236 4.68C45.0236 4.68 45.3836 4.78333 45.7036 4.99C46.0303 5.19667 46.2836 5.45333 46.4636 5.76V2.7H47.5636V8.76C47.5636 8.88667 47.5869 8.97667 47.6336 9.03C47.6803 9.08333 47.7569 9.11333 47.8636 9.12V10C47.6569 10.0333 47.4969 10.05 47.3836 10.05C47.1769 10.05 47.0003 9.99 46.8536 9.87C46.7136 9.75 46.6403 9.60667 46.6336 9.44L46.6236 9.05C46.4236 9.38333 46.1536 9.64333 45.8136 9.83C45.4736 10.01 45.1203 10.1 44.7536 10.1C44.3936 10.1 44.0603 10.03 43.7536 9.89C43.4536 9.75 43.1903 9.55333 42.9636 9.3C42.7436 9.04667 42.5703 8.75667 42.4436 8.43C42.3236 8.10333 42.2636 7.75667 42.2636 7.39ZM46.4636 8.12V6.75C46.3903 6.53667 46.2703 6.34667 46.1036 6.18C45.9436 6.00667 45.7603 5.87 45.5536 5.77C45.3536 5.67 45.1536 5.62 44.9536 5.62C44.7203 5.62 44.5069 5.67 44.3136 5.77C44.1269 5.87 43.9636 6.00333 43.8236 6.17C43.6903 6.33667 43.5869 6.52667 43.5136 6.74C43.4403 6.95333 43.4036 7.17667 43.4036 7.41C43.4036 7.65 43.4436 7.87667 43.5236 8.09C43.6036 8.29667 43.7169 8.48333 43.8636 8.65C44.0169 8.81 44.1903 8.93667 44.3836 9.03C44.5836 9.11667 44.8003 9.16 45.0336 9.16C45.1803 9.16 45.3269 9.13333 45.4736 9.08C45.6269 9.02667 45.7703 8.95333 45.9036 8.86C46.0436 8.76667 46.1603 8.65667 46.2536 8.53C46.3536 8.40333 46.4236 8.26667 46.4636 8.12ZM53.7815 10.1C53.3682 10.1 52.9982 10.03 52.6715 9.89C52.3448 9.74333 52.0615 9.54333 51.8215 9.29C51.5882 9.03667 51.4082 8.75 51.2815 8.43C51.1548 8.10333 51.0915 7.75667 51.0915 7.39C51.0915 7.02333 51.1548 6.67667 51.2815 6.35C51.4082 6.02333 51.5882 5.73667 51.8215 5.49C52.0615 5.23667 52.3448 5.04 52.6715 4.9C53.0048 4.75333 53.3748 4.68 53.7815 4.68C54.1882 4.68 54.5548 4.75333 54.8815 4.9C55.2148 5.04 55.4982 5.23667 55.7315 5.49C55.9715 5.73667 56.1548 6.02333 56.2815 6.35C56.4082 6.67667 56.4715 7.02333 56.4715 7.39C56.4715 7.75667 56.4082 8.10333 56.2815 8.43C56.1548 8.75 55.9715 9.03667 55.7315 9.29C55.4982 9.54333 55.2148 9.74333 54.8815 9.89C54.5548 10.03 54.1882 10.1 53.7815 10.1ZM52.2215 7.4C52.2215 7.73333 52.2915 8.03333 52.4315 8.3C52.5715 8.56667 52.7582 8.77667 52.9915 8.93C53.2248 9.08333 53.4882 9.16 53.7815 9.16C54.0682 9.16 54.3282 9.08333 54.5615 8.93C54.8015 8.77 54.9915 8.55667 55.1315 8.29C55.2715 8.01667 55.3415 7.71667 55.3415 7.39C55.3415 7.05667 55.2715 6.75667 55.1315 6.49C54.9915 6.22333 54.8015 6.01333 54.5615 5.86C54.3282 5.7 54.0682 5.62 53.7815 5.62C53.4882 5.62 53.2248 5.7 52.9915 5.86C52.7582 6.02 52.5715 6.23333 52.4315 6.5C52.2915 6.76 52.2215 7.06 52.2215 7.4ZM62.1371 10H61.0371V7.07C61.0371 6.58333 60.9571 6.22667 60.7971 6C60.6438 5.77333 60.4138 5.66 60.1071 5.66C59.8938 5.66 59.6804 5.71333 59.4671 5.82C59.2604 5.92667 59.0738 6.07333 58.9071 6.26C58.7404 6.44 58.6204 6.65 58.5471 6.89V10H57.4471V4.77H58.4471V5.82C58.5804 5.58667 58.7538 5.38667 58.9671 5.22C59.1871 5.04667 59.4338 4.91333 59.7071 4.82C59.9804 4.72667 60.2704 4.68 60.5771 4.68C60.8904 4.68 61.1471 4.73667 61.3471 4.85C61.5538 4.96333 61.7138 5.12 61.8271 5.32C61.9471 5.51333 62.0271 5.74 62.0671 6C62.1138 6.25333 62.1371 6.52333 62.1371 6.81V10ZM68.7946 9.73C68.7013 9.77667 68.5846 9.82667 68.4446 9.88C68.3046 9.93333 68.1446 9.98 67.9646 10.02C67.7913 10.06 67.6113 10.08 67.4246 10.08C67.1979 10.08 66.9879 10.04 66.7946 9.96C66.6013 9.88 66.4446 9.75333 66.3246 9.58C66.2113 9.4 66.1546 9.17 66.1546 8.89V5.62H65.4646V4.77H66.1546V3.05H67.2546V4.77H68.3946V5.62H67.2546V8.54C67.2679 8.72 67.3246 8.85333 67.4246 8.94C67.5313 9.02667 67.6613 9.07 67.8146 9.07C67.9679 9.07 68.1146 9.04333 68.2546 8.99C68.3946 8.93667 68.4979 8.89333 68.5646 8.86L68.7946 9.73ZM74.2465 10H73.1465V7.07C73.1465 6.59667 73.0598 6.24333 72.8865 6.01C72.7132 5.77667 72.4698 5.66 72.1565 5.66C71.9632 5.66 71.7632 5.71333 71.5565 5.82C71.3498 5.92667 71.1665 6.07333 71.0065 6.26C70.8465 6.44 70.7298 6.65 70.6565 6.89V10H69.5565V2.7H70.6565V5.82C70.8565 5.46667 71.1298 5.19 71.4765 4.99C71.8232 4.78333 72.1965 4.68 72.5965 4.68C72.9232 4.68 73.1932 4.73667 73.4065 4.85C73.6198 4.96333 73.7865 5.12 73.9065 5.32C74.0332 5.51333 74.1198 5.74 74.1665 6C74.2198 6.25333 74.2465 6.52333 74.2465 6.81V10ZM77.8933 10.1C77.4866 10.1 77.1166 10.03 76.7833 9.89C76.4566 9.74333 76.1733 9.54667 75.9333 9.3C75.6933 9.04667 75.5066 8.76 75.3733 8.44C75.2466 8.11333 75.1833 7.76667 75.1833 7.4C75.1833 6.90667 75.2966 6.45667 75.5233 6.05C75.7499 5.63667 76.0666 5.30667 76.4733 5.06C76.8799 4.80667 77.3566 4.68 77.9033 4.68C78.4499 4.68 78.9199 4.80667 79.3133 5.06C79.7133 5.30667 80.0233 5.63333 80.2433 6.04C80.4633 6.44667 80.5733 6.88333 80.5733 7.35C80.5733 7.43 80.5699 7.50667 80.5633 7.58C80.5566 7.64667 80.5499 7.70333 80.5433 7.75H76.3533C76.3733 8.05667 76.4566 8.32667 76.6033 8.56C76.7566 8.78667 76.9499 8.96667 77.1833 9.1C77.4166 9.22667 77.6666 9.29 77.9333 9.29C78.2266 9.29 78.5033 9.21667 78.7633 9.07C79.0299 8.92333 79.2099 8.73 79.3033 8.49L80.2433 8.76C80.1299 9.01333 79.9566 9.24333 79.7233 9.45C79.4966 9.65 79.2266 9.81 78.9133 9.93C78.5999 10.0433 78.2599 10.1 77.8933 10.1ZM76.3233 7.02H79.4833C79.4633 6.72 79.3766 6.45667 79.2233 6.23C79.0766 5.99667 78.8866 5.81667 78.6533 5.69C78.4266 5.55667 78.1733 5.49 77.8933 5.49C77.6199 5.49 77.3666 5.55667 77.1333 5.69C76.9066 5.81667 76.7199 5.99667 76.5733 6.23C76.4266 6.45667 76.3433 6.72 76.3233 7.02Z"
          fill="currentColor"/>
    <path d="M4.56 16.64H6.256L10.672 28H8.784L7.584 24.912H3.2L2.016 28H0.112L4.56 16.64ZM7.232 23.584L5.408 18.608L3.52 23.584H7.232ZM16.6049 28.16C15.9329 28.16 15.3409 28 14.8289 27.68C14.3169 27.36 13.9115 26.944 13.6129 26.432V31.408H11.8529V19.632H13.4049V21.136C13.7249 20.6347 14.1409 20.2347 14.6529 19.936C15.1649 19.6373 15.7355 19.488 16.3649 19.488C16.9409 19.488 17.4689 19.6053 17.9489 19.84C18.4289 20.064 18.8449 20.3787 19.1969 20.784C19.5489 21.1893 19.8209 21.6533 20.0129 22.176C20.2155 22.688 20.3169 23.232 20.3169 23.808C20.3169 24.608 20.1569 25.3387 19.8369 26C19.5275 26.6613 19.0902 27.1893 18.5249 27.584C17.9702 27.968 17.3302 28.16 16.6049 28.16ZM16.0289 26.656C16.4022 26.656 16.7382 26.576 17.0369 26.416C17.3462 26.256 17.6075 26.0427 17.8209 25.776C18.0449 25.5093 18.2155 25.2053 18.3329 24.864C18.4502 24.5227 18.5089 24.1707 18.5089 23.808C18.5089 23.424 18.4449 23.0613 18.3169 22.72C18.1889 22.3787 18.0022 22.08 17.7569 21.824C17.5222 21.568 17.2449 21.3653 16.9249 21.216C16.6155 21.0667 16.2742 20.992 15.9009 20.992C15.6769 20.992 15.4422 21.0347 15.1969 21.12C14.9515 21.2053 14.7222 21.3227 14.5089 21.472C14.2955 21.6213 14.1089 21.7973 13.9489 22C13.7889 22.2027 13.6769 22.416 13.6129 22.64V24.832C13.7622 25.1733 13.9595 25.4827 14.2049 25.76C14.4502 26.0267 14.7329 26.2453 15.0529 26.416C15.3729 26.576 15.6982 26.656 16.0289 26.656ZM26.6518 28.16C25.9798 28.16 25.3878 28 24.8758 27.68C24.3638 27.36 23.9584 26.944 23.6598 26.432V31.408H21.8997V19.632H23.4518V21.136C23.7718 20.6347 24.1878 20.2347 24.6998 19.936C25.2118 19.6373 25.7824 19.488 26.4118 19.488C26.9878 19.488 27.5158 19.6053 27.9958 19.84C28.4758 20.064 28.8918 20.3787 29.2438 20.784C29.5958 21.1893 29.8678 21.6533 30.0598 22.176C30.2624 22.688 30.3638 23.232 30.3638 23.808C30.3638 24.608 30.2038 25.3387 29.8837 26C29.5744 26.6613 29.1371 27.1893 28.5718 27.584C28.0171 27.968 27.3771 28.16 26.6518 28.16ZM26.0758 26.656C26.4491 26.656 26.7851 26.576 27.0838 26.416C27.3931 26.256 27.6544 26.0427 27.8678 25.776C28.0918 25.5093 28.2624 25.2053 28.3798 24.864C28.4971 24.5227 28.5558 24.1707 28.5558 23.808C28.5558 23.424 28.4918 23.0613 28.3638 22.72C28.2358 22.3787 28.0491 22.08 27.8038 21.824C27.5691 21.568 27.2918 21.3653 26.9718 21.216C26.6624 21.0667 26.3211 20.992 25.9478 20.992C25.7238 20.992 25.4891 21.0347 25.2438 21.12C24.9984 21.2053 24.7691 21.3227 24.5558 21.472C24.3424 21.6213 24.1558 21.7973 23.9958 22C23.8358 22.2027 23.7238 22.416 23.6598 22.64V24.832C23.8091 25.1733 24.0064 25.4827 24.2518 25.76C24.4971 26.0267 24.7798 26.2453 25.0998 26.416C25.4198 26.576 25.7451 26.656 26.0758 26.656ZM42.8438 19.312C42.7371 19.1947 42.5824 19.072 42.3798 18.944C42.1771 18.8053 41.9371 18.6773 41.6598 18.56C41.3824 18.4427 41.0838 18.3467 40.7638 18.272C40.4438 18.1973 40.1131 18.16 39.7718 18.16C39.0251 18.16 38.4704 18.2987 38.1078 18.576C37.7451 18.8533 37.5638 19.2373 37.5638 19.728C37.5638 20.0907 37.6651 20.3787 37.8678 20.592C38.0704 20.7947 38.3798 20.9653 38.7958 21.104C39.2118 21.2427 39.7344 21.392 40.3638 21.552C41.1318 21.7333 41.7984 21.952 42.3638 22.208C42.9291 22.4533 43.3611 22.784 43.6597 23.2C43.9584 23.616 44.1078 24.1653 44.1078 24.848C44.1078 25.424 44.0011 25.92 43.7878 26.336C43.5744 26.752 43.2758 27.0933 42.8918 27.36C42.5078 27.616 42.0651 27.808 41.5638 27.936C41.0624 28.0533 40.5238 28.112 39.9478 28.112C39.3824 28.112 38.8171 28.0533 38.2518 27.936C37.6971 27.8187 37.1638 27.648 36.6518 27.424C36.1504 27.1893 35.6864 26.9067 35.2598 26.576L36.0758 25.04C36.2144 25.1787 36.4118 25.3333 36.6678 25.504C36.9344 25.664 37.2384 25.8187 37.5798 25.968C37.9318 26.1173 38.3104 26.2453 38.7158 26.352C39.1318 26.448 39.5531 26.496 39.9798 26.496C40.6944 26.496 41.2384 26.3733 41.6118 26.128C41.9958 25.872 42.1878 25.5093 42.1878 25.04C42.1878 24.656 42.0651 24.352 41.8198 24.128C41.5744 23.8933 41.2171 23.696 40.7478 23.536C40.2784 23.376 39.7184 23.216 39.0677 23.056C38.3211 22.8533 37.6971 22.6347 37.1957 22.4C36.6944 22.1547 36.3158 21.8453 36.0598 21.472C35.8144 21.088 35.6918 20.6027 35.6918 20.016C35.6918 19.2693 35.8731 18.64 36.2358 18.128C36.5984 17.6053 37.0891 17.216 37.7078 16.96C38.3371 16.6933 39.0411 16.56 39.8198 16.56C40.3318 16.56 40.8171 16.6187 41.2758 16.736C41.7344 16.8427 42.1611 16.992 42.5558 17.184C42.9611 17.376 43.3291 17.5947 43.6597 17.84L42.8438 19.312ZM50.1651 27.568C50.0158 27.6427 49.8291 27.7227 49.6051 27.808C49.3811 27.8933 49.1251 27.968 48.8371 28.032C48.5598 28.096 48.2718 28.128 47.9731 28.128C47.6105 28.128 47.2745 28.064 46.9651 27.936C46.6558 27.808 46.4051 27.6053 46.2131 27.328C46.0318 27.04 45.9411 26.672 45.9411 26.224V20.992H44.8371V19.632H45.9411V16.88H47.7011V19.632H49.5251V20.992H47.7011V25.664C47.7225 25.952 47.8131 26.1653 47.9731 26.304C48.1438 26.4427 48.3518 26.512 48.5971 26.512C48.8425 26.512 49.0771 26.4693 49.3011 26.384C49.5251 26.2987 49.6905 26.2293 49.7971 26.176L50.1651 27.568ZM55.0348 28.16C54.3734 28.16 53.7814 28.048 53.2588 27.824C52.7361 27.5893 52.2828 27.2693 51.8988 26.864C51.5254 26.4587 51.2374 26 51.0348 25.488C50.8321 24.9653 50.7308 24.4107 50.7308 23.824C50.7308 23.2373 50.8321 22.6827 51.0348 22.16C51.2374 21.6373 51.5254 21.1787 51.8988 20.784C52.2828 20.3787 52.7361 20.064 53.2588 19.84C53.7921 19.6053 54.3841 19.488 55.0348 19.488C55.6854 19.488 56.2721 19.6053 56.7948 19.84C57.3281 20.064 57.7814 20.3787 58.1548 20.784C58.5388 21.1787 58.8321 21.6373 59.0347 22.16C59.2374 22.6827 59.3388 23.2373 59.3388 23.824C59.3388 24.4107 59.2374 24.9653 59.0347 25.488C58.8321 26 58.5388 26.4587 58.1548 26.864C57.7814 27.2693 57.3281 27.5893 56.7948 27.824C56.2721 28.048 55.6854 28.16 55.0348 28.16ZM52.5388 23.84C52.5388 24.3733 52.6508 24.8533 52.8748 25.28C53.0988 25.7067 53.3974 26.0427 53.7708 26.288C54.1441 26.5333 54.5654 26.656 55.0348 26.656C55.4934 26.656 55.9094 26.5333 56.2828 26.288C56.6668 26.032 56.9708 25.6907 57.1948 25.264C57.4188 24.8267 57.5308 24.3467 57.5308 23.824C57.5308 23.2907 57.4188 22.8107 57.1948 22.384C56.9708 21.9573 56.6668 21.6213 56.2828 21.376C55.9094 21.12 55.4934 20.992 55.0348 20.992C54.5654 20.992 54.1441 21.12 53.7708 21.376C53.3974 21.632 53.0988 21.9733 52.8748 22.4C52.6508 22.816 52.5388 23.296 52.5388 23.84ZM65.6038 21.152C64.9211 21.1627 64.3131 21.3173 63.7798 21.616C63.2571 21.9147 62.8838 22.336 62.6598 22.88V28H60.8997V19.632H62.5318V21.504C62.8198 20.928 63.1984 20.4693 63.6678 20.128C64.1371 19.776 64.6331 19.584 65.1558 19.552C65.2624 19.552 65.3478 19.552 65.4118 19.552C65.4864 19.552 65.5504 19.5573 65.6038 19.568V21.152ZM70.5199 28.16C69.8692 28.16 69.2772 28.048 68.7439 27.824C68.2212 27.5893 67.7679 27.2747 67.3839 26.88C66.9999 26.4747 66.7012 26.016 66.4879 25.504C66.2852 24.9813 66.1839 24.4267 66.1839 23.84C66.1839 23.0507 66.3652 22.3307 66.7279 21.68C67.0905 21.0187 67.5972 20.4907 68.2479 20.096C68.8985 19.6907 69.6612 19.488 70.5359 19.488C71.4105 19.488 72.1625 19.6907 72.7919 20.096C73.4319 20.4907 73.9279 21.0133 74.2799 21.664C74.6319 22.3147 74.8079 23.0133 74.8079 23.76C74.8079 23.888 74.8025 24.0107 74.7919 24.128C74.7812 24.2347 74.7705 24.3253 74.7599 24.4H68.0559C68.0879 24.8907 68.2212 25.3227 68.4559 25.696C68.7012 26.0587 69.0105 26.3467 69.3839 26.56C69.7572 26.7627 70.1572 26.864 70.5839 26.864C71.0532 26.864 71.4959 26.7467 71.9119 26.512C72.3385 26.2773 72.6265 25.968 72.7759 25.584L74.2799 26.016C74.0985 26.4213 73.8212 26.7893 73.4479 27.12C73.0852 27.44 72.6532 27.696 72.1519 27.888C71.6505 28.0693 71.1065 28.16 70.5199 28.16ZM68.0079 23.232H73.0639C73.0319 22.752 72.8932 22.3307 72.6479 21.968C72.4132 21.5947 72.1092 21.3067 71.7359 21.104C71.3732 20.8907 70.9679 20.784 70.5199 20.784C70.0825 20.784 69.6772 20.8907 69.3039 21.104C68.9412 21.3067 68.6425 21.5947 68.4079 21.968C68.1732 22.3307 68.0399 22.752 68.0079 23.232Z"
          fill="currentColor"/>
</svg>
