<svg width="1920" height="345" viewBox="0 0 1920 345" fill="none" xmlns="http://www.w3.org/2000/svg">
<g clip-path="url(#clip0_577_3481)">
<path d="M1463.89 440.067C1487.99 466.996 1485.65 619.594 1481.46 692.527V1002.69H1664.68C1672.21 1002.69 1687.27 996.918 1687.27 973.836C1687.27 950.754 1730.78 914.528 1752.53 899.3L1687.27 925.748C1697.31 882.469 1721.41 796.393 1737.47 798.316C1753.53 800.24 1775.95 789.5 1785.16 783.89C1792.68 803.125 1745 824.764 1760.06 824.764C1772.1 824.764 1793.52 803.926 1802.72 793.507C1811.09 771.066 1826.82 733.398 1822.8 762.25C1817.78 798.316 1830.33 815.147 1845.39 863.234C1860.45 911.322 1905.63 932.961 1928.22 937.77C1950.8 942.579 1958.33 913.726 1955.82 899.3C1953.31 884.874 1943.28 872.852 1943.28 851.212C1943.28 829.573 1840.37 750.228 1885.55 762.25C1930.73 774.272 1978.41 759.846 2003.51 750.228C2028.61 740.611 2056.22 704.545 2063.75 680.501C2069.77 661.266 2057.89 650.046 2051.2 646.84C2066.26 632.414 2051.2 608.37 2046.18 596.348C2041.16 584.326 2048.69 574.709 2036.14 572.304C2023.59 569.9 2036.14 562.687 2026.1 550.665C2018.07 541.047 1995.98 543.452 1985.94 545.856C1985.94 507.386 1960.84 500.974 1948.29 502.577C1918.18 437.178 1867.14 441.666 1845.39 452.085C1793.19 407.845 1760.06 433.652 1750.02 452.085C1735.96 425.156 1705.68 429.644 1692.29 435.255C1686.27 425.637 1674.72 429.644 1669.7 432.85C1633.56 480.938 1641.26 560.282 1649.62 593.944L1576.84 555.474C1574.33 568.297 1574.33 605.485 1594.41 651.649C1614.49 697.813 1668.03 690.119 1692.29 680.501C1694.3 693.966 1704.84 702.141 1709.86 704.545C1681.75 737.245 1689.78 771.066 1697.31 783.89C1698.15 775.074 1702.83 753.114 1714.88 735.802C1729.94 714.163 1760.06 716.567 1732.45 743.015C1710.36 764.174 1681.42 849.609 1669.7 889.682C1668.87 878.462 1662.17 845.442 1642.1 803.125C1622.02 760.808 1590.23 771.066 1576.84 781.485C1590.23 779.081 1614.49 785.813 1604.45 831.977C1594.41 878.141 1536.68 851.212 1509.07 831.977L1504.05 507.386C1511.58 476.129 1532.16 411.211 1554.25 401.593C1576.34 391.976 1590.23 371.939 1594.41 363.123H1627.04C1672.21 360.719 1694.8 331.866 1714.88 295.801C1734.96 259.735 1729.94 197.221 1719.9 197.221C1709.86 197.221 1724.92 233.287 1684.76 252.522C1644.6 271.757 1619.51 322.249 1609.47 317.44C1601.44 313.593 1607.79 294.999 1611.98 286.183C1637.08 250.117 1647.11 137.112 1611.98 122.685C1583.87 111.144 1528.32 153.142 1504.05 175.584C1491.51 150.739 1456.37 102.972 1416.21 110.666C1376.05 118.36 1349.28 194.019 1340.92 230.886C1298.25 185.203 1263.11 190.012 1245.54 192.416C1227.97 194.82 1238.01 266.952 1268.13 290.996C1298.25 315.039 1315.81 329.466 1328.36 341.488C1340.91 353.51 1371.03 387.171 1401.15 394.384C1431.27 401.597 1433.78 406.406 1463.89 440.067Z" fill="#347B81"/>
<path d="M177.295 281.438C168.985 292.673 177.68 334.49 183.065 353.994C183.835 355.945 184.912 361.016 183.065 365.697C180.758 371.548 111.509 389.102 101.122 383.251C90.7351 377.4 133.438 306.014 127.667 281.438C123.051 261.777 122.666 225.656 123.051 210.054H83.8106C19.1804 205.373 -112.39 104.73 -68.5336 94.1986C-33.4482 85.7736 42.2617 103.951 75.731 114.093C62.2663 82.4958 38.1066 18.8336 49.1862 16.9612C63.0357 14.6207 120.742 77.8144 148.441 104.73C170.6 126.262 183.064 128.525 186.527 126.965C195.375 117.603 219.073 100.049 243.079 104.73C267.085 109.411 273.855 133.986 274.24 145.689C292.706 150.37 328.484 164.413 344.642 179.626C357.568 191.797 354.644 194.059 351.566 193.669C328.484 177.286 282.319 157.391 255.774 160.902C229.229 164.413 226.921 193.669 221.15 221.755C215.38 249.841 187.682 267.395 177.295 281.438Z" fill="#347B81"/>
<path d="M383.485 501.028C359.62 525.579 355.87 670.152 356.979 739.369L344.85 1033.03L171.376 1025.84C164.248 1025.55 150.215 1019.49 151.118 997.637C152.02 975.782 112.247 939.776 92.248 924.504L152.998 952.107C145.185 910.736 125.739 828.292 110.455 829.483C95.1711 830.674 74.3626 819.626 65.8688 813.953C57.9877 831.869 102.292 854.229 88.0337 853.638C76.6273 853.165 57.1642 832.595 48.8584 822.369C41.8148 800.793 28.3962 764.511 31.07 791.987C34.4124 826.331 21.8726 841.774 5.73425 886.712C-10.4041 931.651 -54.0243 950.366 -75.5992 954.032C-97.1741 957.699 -103.175 930.086 -100.234 916.525C-97.294 902.965 -87.3186 891.977 -86.4724 871.488C-85.6262 851 14.9059 779.915 -28.3381 789.524C-71.5821 799.133 -116.168 783.603 -139.555 773.512C-162.943 763.421 -187.672 728.19 -193.861 705.129C-198.812 686.681 -187.125 676.524 -180.663 673.751C-194.356 659.501 -179.158 637.328 -173.935 626.142C-168.713 614.957 -175.466 605.555 -163.49 603.771C-151.514 601.987 -163.114 594.665 -153.139 583.677C-145.158 574.886 -124.341 578.03 -114.929 580.7C-113.425 544.276 -89.4109 539.191 -77.592 541.201C-46.5187 480.463 1.6244 486.715 21.8118 497.434C72.9694 457.595 103.328 483.33 112.112 501.177C126.473 476.232 154.971 481.67 167.426 487.507C173.505 478.638 184.28 482.885 188.907 486.117C221.245 533.066 210.855 607.887 201.618 639.43L272.036 605.863C273.911 618.103 272.456 653.312 251.641 696.233C230.825 739.153 180.431 729.767 157.836 719.709C155.408 732.378 145.108 739.704 140.261 741.784C165.597 773.847 156.671 805.555 149.04 817.4C148.593 809.02 145.016 788.045 134.286 771.181C120.875 750.102 92.2646 751.196 117.37 777.321C137.454 798.221 161.52 880.248 171.043 918.649C172.274 908.058 179.902 877.058 200.567 837.779C221.233 798.501 250.932 809.462 263.198 819.852C250.618 817.05 227.384 822.472 235.084 866.575C242.784 910.677 298.492 887.446 325.384 870.318L342.83 563.19C336.923 533.3 319.976 471.027 299.44 461.055C278.905 451.082 266.539 431.566 262.923 423.055L232.031 421.774C189.351 417.724 169.092 389.52 151.492 354.585C133.892 319.649 141.089 260.658 150.594 261.052C160.1 261.446 144.431 295.002 181.7 314.79C218.969 334.578 240.758 383.369 250.452 379.21C258.206 375.883 252.913 358.029 249.298 349.518C226.945 314.385 221.858 206.997 255.691 194.717C282.757 184.893 333.711 226.837 355.804 249.038C368.658 226.006 403.794 182.159 441.514 191.02C479.235 199.881 501.624 272.566 508.103 307.801C550.287 266.222 583.37 272.155 599.91 275.121C616.45 278.087 604.124 345.987 574.668 367.57C545.212 389.153 528.014 402.122 515.662 413.012C503.31 423.902 473.478 454.59 444.68 460.238C415.882 465.885 413.318 470.34 383.485 501.028Z" fill="#347B81"/>
<path d="M1920.02 365.135H6.42843C-7.36591 320.184 -89.3223 157.358 40.0596 165.459C91.0684 168.653 112.07 181.578 137.043 201.367C143.768 196.288 122.293 266.958 149.693 261.918C197.246 253.171 276.405 268.332 360.532 274.741C427.541 246.309 546.117 237.957 554.293 308.371C589.194 217.625 751.49 319.001 756.808 337.759C782.568 320.015 771.381 293.263 879.875 267.307C988.368 241.35 1115.22 252.257 1134.99 273.887C1382.79 256.665 1474.69 241.959 1540.51 267.307C1580.56 282.685 1786.53 248.225 1942.49 237.275C2098.45 226.325 1944.12 333.704 1920.02 365.135Z" fill="#347B81"/>
<path d="M708.368 365.573C705.748 376.251 694.888 375.628 689.786 373.982C679.445 383.44 689.603 388.658 695.974 390.085L897.183 415.568C907.06 412.926 926.198 398.723 923.743 363.041C921.287 327.36 907.758 307.606 911.979 301.55C937.098 292.41 962.884 250.132 965.882 235.9C975.739 179.475 967.584 148.008 928.592 112.972C887.743 76.2681 825.062 92.1965 801.001 101.421C780.747 109.985 747.715 124.231 760.236 139.318C775.888 158.176 799.627 124.111 834.458 114.487C869.288 104.864 913.519 130.758 928.575 169.69C943.63 208.622 928.227 244.215 911.979 245.43C895.731 246.644 894.096 173.728 858.075 166.013C813.244 156.41 797.381 196.557 786.204 215.799C780.176 228.292 764.565 240.195 754.763 239.655C742.51 238.98 758.072 202 757.242 199.347C756.412 196.694 753.999 196.313 750.457 203.318C747.624 208.921 738.121 213.973 733.724 215.799C726.241 206.55 701.969 202.767 694.315 213.132C693.145 210.006 692.486 204.768 690.342 199.387C687.663 192.662 686.762 178.129 685.257 187.975C683.753 197.822 680.565 213.311 677.34 239.655C674.947 259.195 694.708 275.552 701.649 286.732C708.589 297.913 711.643 352.225 708.368 365.573Z" fill="#347B81"/>
<path d="M1931.5 230.926C1974.57 259.511 2003.62 312.314 2012.77 335.143C1913.21 332.496 1645.15 316.575 1651.65 307.047C1659.78 295.137 1723.25 278.567 1719.19 260.701C1715.13 242.836 1711.06 237.873 1690.75 234.895C1670.43 231.918 1662.3 213.059 1665.35 210.082C1668.4 207.104 1669.41 211.074 1685.67 180.305C1701.92 149.537 1729.35 159.462 1735.44 157.477C1741.54 155.492 1745.6 119.761 1760.84 64.1779C1776.08 8.59478 1812.65 -21.1807 1814.68 17.5284C1816.71 56.2376 1745.6 157.477 1757.79 157.477C1769.98 157.477 1834.99 64.1787 1862.42 53.2607C1889.85 42.3428 1887.82 92.9624 1847.18 119.761L1846.86 119.972C1806.06 146.881 1713.27 208.077 1782.17 200.157C1851.25 192.217 1877.66 195.194 1931.5 230.926Z" fill="#347B81"/>
<path d="M849.951 303.838C849.951 308.63 839.921 317.317 834.906 321.061L1470.22 317.318L1417.56 277.629L1392.94 256.662L1383.37 261.155L1371.06 242.434L1353.96 231.95L1348.49 223.712L1340.29 218.47L1323.19 211.731L1303.36 199L1288.31 184.023L1276 178.782L1246.68 150.934H1241.25L1224.96 169.837L1214.1 176.801L1204.88 186.27L1193.94 187.768L1187.1 197.503L1174.79 199C1167.27 206.489 1151.67 220.268 1149.49 215.475C1147.3 210.682 1133.07 202.495 1126.23 199C1122.82 188.517 1096.14 154.069 1091.36 145.832C1086.57 137.594 1081.78 136.846 1079.73 139.092C1078.09 140.889 1050.33 168.297 1036.65 181.777L1024.34 179.53C1017.73 188.017 1003.96 205.59 1001.77 207.986C999.035 210.982 988.093 213.228 983.99 215.475C979.887 217.721 971.68 238.689 964.841 243.181C959.37 246.775 940.678 260.654 932.016 267.144C929.28 264.898 907.396 242.433 904.661 243.181C902.473 243.78 891.439 260.904 886.196 269.391C883.917 269.141 878.947 269.241 877.306 271.637C875.255 274.633 867.048 286.614 866.364 290.358C865.68 294.103 849.951 297.847 849.951 303.838Z" fill="#347B81"/>
<path d="M490.656 349.016C475.68 364.423 473.327 455.144 474.023 498.579L466.412 682.858L357.554 678.345C353.081 678.16 344.275 674.36 344.842 660.646C345.408 646.932 320.45 624.338 307.9 614.755L346.022 632.076C341.119 606.115 328.916 554.38 319.325 555.127C309.734 555.875 296.677 548.942 291.347 545.382C286.401 556.624 314.202 570.656 305.255 570.285C298.098 569.988 285.884 557.08 280.672 550.663C276.252 537.124 267.832 514.356 269.51 531.598C271.607 553.149 263.738 562.84 253.611 591.04C243.484 619.239 216.112 630.983 202.573 633.284C189.034 635.585 185.269 618.257 187.114 609.748C188.959 601.238 195.219 594.343 195.75 581.486C196.281 568.629 259.366 524.022 232.23 530.052C205.094 536.082 177.115 526.337 162.44 520.004C147.764 513.672 132.246 491.564 128.362 477.093C125.255 465.517 132.589 459.143 136.644 457.403C128.051 448.461 137.588 434.546 140.865 427.527C144.143 420.508 139.905 414.609 147.42 413.489C154.935 412.37 147.656 407.775 153.916 400.88C158.924 395.364 171.987 397.336 177.893 399.012C178.837 376.155 193.906 372.964 201.323 374.226C220.822 336.111 251.032 340.035 263.7 346.761C295.802 321.762 314.853 337.91 320.365 349.11C329.377 333.456 347.26 336.869 355.075 340.532C358.89 334.966 365.651 337.631 368.555 339.66C388.848 369.12 382.328 416.072 376.531 435.866L420.72 414.802C421.896 422.483 420.984 444.577 407.922 471.51C394.859 498.444 363.236 492.554 349.057 486.242C347.534 494.192 341.07 498.79 338.029 500.095C353.928 520.215 348.326 540.112 343.538 547.545C343.257 542.287 341.013 529.124 334.28 518.542C325.864 505.314 307.91 506.001 323.664 522.395C336.268 535.51 351.369 586.983 357.345 611.08C358.117 604.435 362.904 584.981 375.872 560.333C388.84 535.686 407.477 542.564 415.174 549.084C407.28 547.326 392.7 550.728 397.532 578.403C402.364 606.078 437.322 591.5 454.197 580.752L465.144 388.024C461.438 369.268 450.803 330.19 437.916 323.932C425.03 317.674 417.27 305.428 415.001 300.087L395.616 299.283C368.834 296.742 356.121 279.043 345.077 257.121C334.032 235.198 338.549 198.18 344.513 198.427C350.478 198.675 340.646 219.732 364.033 232.149C387.42 244.566 401.093 275.184 407.175 272.574C412.042 270.486 408.72 259.282 406.451 253.941C392.424 231.895 389.233 164.507 410.463 156.801C427.448 150.636 459.422 176.957 473.286 190.888C481.352 176.436 503.4 148.921 527.07 154.481C550.741 160.042 564.79 205.653 568.856 227.763C595.327 201.672 616.087 205.394 626.466 207.256C636.846 209.117 629.111 251.726 610.627 265.269C592.142 278.813 581.35 286.951 573.599 293.785C565.848 300.618 547.128 319.876 529.057 323.42C510.986 326.964 509.376 329.759 490.656 349.016Z" fill="#347B81"/>
</g>
<defs>
<clipPath id="clip0_577_3481">
<rect width="1920" height="345" fill="white"/>
</clipPath>
</defs>
</svg>
