<svg width="768" height="211" viewBox="0 0 768 211" fill="none" xmlns="http://www.w3.org/2000/svg">
<g clip-path="url(#clip0_579_1723)">
<path d="M895.877 269.143C910.622 285.612 909.188 378.94 906.628 423.546V613.239H1018.76C1023.36 613.239 1032.58 609.709 1032.58 595.592C1032.58 581.476 1059.2 559.32 1072.51 550.007L1032.58 566.182C1038.72 539.713 1053.47 487.069 1063.3 488.246C1073.13 489.422 1086.85 482.854 1092.48 479.423C1097.09 491.187 1067.91 504.421 1077.12 504.421C1084.49 504.421 1097.6 491.677 1103.23 485.305C1108.35 471.58 1117.98 448.542 1115.52 466.188C1112.45 488.246 1120.13 498.539 1129.34 527.949C1138.56 557.359 1166.21 570.594 1180.03 573.535C1193.86 576.476 1198.46 558.83 1196.93 550.007C1195.39 541.184 1189.25 533.831 1189.25 520.597C1189.25 507.362 1126.27 458.836 1153.92 466.188C1181.57 473.541 1210.75 464.718 1226.11 458.836C1241.47 452.953 1258.37 430.896 1262.97 416.191C1266.66 404.427 1259.39 397.564 1255.29 395.604C1264.51 386.781 1255.29 372.076 1252.22 364.723C1249.15 357.371 1253.76 351.489 1246.08 350.018C1238.4 348.548 1246.08 344.136 1239.93 336.784C1235.02 330.902 1221.5 332.372 1215.36 333.843C1215.36 310.315 1200 306.393 1192.32 307.374C1173.89 267.376 1142.66 270.121 1129.34 276.493C1097.4 249.436 1077.12 265.219 1070.98 276.493C1062.38 260.023 1043.84 262.768 1035.65 266.199C1031.96 260.317 1024.9 262.768 1021.83 264.729C999.709 294.139 1004.42 342.666 1009.54 363.253L964.996 339.725C963.46 347.567 963.46 370.311 975.748 398.545C988.036 426.779 1020.8 422.073 1035.65 416.191C1036.88 424.426 1043.33 429.425 1046.4 430.896C1029.2 450.895 1034.11 471.58 1038.72 479.423C1039.23 474.031 1042.1 460.6 1049.47 450.012C1058.69 436.778 1077.12 438.248 1060.23 454.424C1046.71 467.364 1028.99 519.616 1021.83 544.125C1021.32 537.262 1017.22 517.068 1004.93 491.187C992.644 465.306 973.188 471.58 964.996 477.952C973.188 476.482 988.036 480.599 981.892 508.833C975.748 537.066 940.421 520.597 923.525 508.833L920.453 310.315C925.061 291.198 937.656 251.494 951.173 245.612C964.689 239.73 973.188 227.476 975.748 222.084H995.716C1023.36 220.614 1037.19 202.968 1049.47 180.91C1061.76 158.853 1058.69 120.619 1052.55 120.619C1046.4 120.619 1055.62 142.677 1031.04 154.441C1006.47 166.205 991.108 197.086 984.964 194.145C980.049 191.792 983.94 180.42 986.5 175.028C1001.86 152.971 1008 83.8568 986.5 75.0338C969.297 67.9754 935.301 93.6611 920.453 107.386C912.773 92.1911 891.27 62.9771 866.695 67.6827C842.119 72.3883 825.735 118.661 820.616 141.209C794.504 113.269 772.999 116.21 762.248 117.681C751.496 119.151 757.64 163.266 776.071 177.971C794.503 192.676 805.255 201.499 812.934 208.852C820.614 216.205 839.046 236.792 857.477 241.203C875.909 245.615 877.445 248.556 895.877 269.143Z" fill="#347B81"/>
<path d="M108.501 172.126C103.416 178.997 108.736 204.572 112.032 216.501C112.503 217.694 113.162 220.796 112.032 223.659C110.62 227.237 68.2416 237.973 61.8849 234.394C55.5283 230.816 81.6613 187.157 78.1298 172.126C75.3046 160.102 75.0692 138.01 75.3046 128.468H51.2906C11.7383 125.605 -68.7802 64.0524 -41.9409 57.6116C-20.4694 52.4589 25.8635 63.5761 46.3461 69.7788C38.1059 50.4542 23.3207 11.5188 30.1012 10.3737C38.5768 8.94223 73.8917 47.5911 90.8429 64.0524C104.404 77.2215 112.032 78.6053 114.151 77.6511C119.566 71.9254 134.068 61.1896 148.759 64.0524C163.45 66.9153 167.594 81.9454 167.829 89.1026C179.13 91.9655 201.026 100.554 210.914 109.858C218.824 117.302 217.035 118.686 215.152 118.447C201.026 108.427 172.774 96.26 156.529 98.4071C140.284 100.554 138.871 118.447 135.34 135.625C131.808 152.802 114.858 163.538 108.501 172.126Z" fill="#347B81"/>
<path d="M234.688 306.426C220.083 321.441 217.789 409.861 218.467 452.194L211.045 631.797L104.882 627.398C100.519 627.218 91.932 623.515 92.4844 610.149C93.0367 596.783 68.6965 574.762 56.4573 565.422L93.6351 582.303C88.8538 557.001 76.9528 506.579 67.5995 507.307C58.2461 508.035 45.5118 501.278 40.3137 497.809C35.4906 508.766 62.6037 522.442 53.8782 522.08C46.8977 521.791 34.9867 509.21 29.9037 502.956C25.5932 489.761 17.3813 467.571 19.0176 484.375C21.0631 505.379 13.389 514.824 3.51265 542.308C-6.36371 569.792 -33.0583 581.239 -46.2617 583.481C-59.4652 585.723 -63.1375 568.835 -61.338 560.542C-59.5384 552.248 -53.4337 545.528 -52.9159 532.997C-52.398 520.467 9.12549 476.991 -17.3389 482.868C-43.8033 488.745 -71.0891 479.247 -85.4015 473.075C-99.714 466.904 -114.848 445.357 -118.635 431.253C-121.665 419.97 -114.513 413.758 -110.558 412.062C-118.939 403.347 -109.638 389.786 -106.441 382.945C-103.245 376.104 -107.378 370.354 -100.049 369.263C-92.7202 368.172 -99.8189 363.694 -93.7142 356.974C-88.8304 351.597 -76.0904 353.52 -70.3309 355.153C-69.4103 332.876 -54.7142 329.766 -47.4813 330.996C-28.465 293.848 0.997499 297.672 13.3518 304.228C44.6592 279.863 63.2378 295.602 68.6138 306.517C77.402 291.261 94.8427 294.587 102.465 298.157C106.185 292.732 112.779 295.33 115.61 297.307C135.401 326.02 129.043 371.781 123.389 391.072L166.484 370.542C167.631 378.028 166.741 399.562 154.002 425.812C141.263 452.062 110.423 446.321 96.5956 440.17C95.11 447.918 88.8064 452.399 85.8404 453.671C101.346 473.281 95.8826 492.673 91.2129 499.917C90.9391 494.792 88.75 481.964 82.1838 471.65C73.9761 458.758 56.4674 459.427 71.8314 475.405C84.1226 488.187 98.8505 538.355 104.678 561.841C105.431 555.363 110.1 536.403 122.746 512.381C135.393 488.359 153.568 495.062 161.075 501.417C153.376 499.703 139.157 503.019 143.87 529.992C148.582 556.965 182.675 542.757 199.132 532.282L209.808 344.444C206.193 326.163 195.822 288.078 183.255 281.978C170.687 275.879 163.12 263.943 160.907 258.738L142.002 257.955C115.882 255.478 103.484 238.228 92.7134 216.862C81.9424 195.496 86.347 159.417 92.164 159.658C97.9811 159.899 88.3924 180.422 111.2 192.524C134.008 204.626 147.342 234.467 153.275 231.923C158.02 229.888 154.781 218.969 152.568 213.763C138.889 192.276 135.776 126.598 156.481 119.088C173.045 113.08 204.228 138.732 217.748 152.31C225.614 138.224 247.117 111.408 270.201 116.827C293.285 122.246 306.987 166.7 310.952 188.249C336.768 162.82 357.013 166.448 367.136 168.262C377.258 170.076 369.715 211.604 351.688 224.804C333.662 238.004 323.137 245.936 315.578 252.596C308.019 259.256 289.762 278.025 272.138 281.479C254.515 284.933 252.945 287.657 234.688 306.426Z" fill="#347B81"/>
<path d="M1175.01 223.315H3.93501C-4.50684 195.823 -54.6625 96.2397 24.5166 101.194C55.7329 103.147 68.5856 111.053 83.8686 123.155C87.9843 120.049 74.8416 163.27 91.6102 160.188C120.711 154.838 169.155 164.111 220.639 168.031C261.647 150.642 334.213 145.533 339.217 188.598C360.576 133.099 459.897 195.1 463.152 206.572C478.916 195.72 472.07 179.359 538.466 163.484C604.862 147.609 682.49 154.279 694.593 167.508C846.242 156.975 902.483 147.981 942.759 163.484C967.271 172.889 1093.32 151.814 1188.76 145.116C1284.21 138.419 1189.76 204.092 1175.01 223.315Z" fill="#347B81"/>
<path d="M433.508 223.582C431.904 230.113 425.258 229.732 422.136 228.725C415.807 234.51 422.024 237.701 425.923 238.574L549.059 254.159C555.103 252.543 566.815 243.856 565.312 222.034C563.81 200.211 555.53 188.13 558.113 184.426C573.486 178.836 589.266 152.979 591.101 144.275C597.133 109.766 592.142 90.5206 568.28 69.0931C543.281 46.645 504.922 56.3867 490.197 62.0281C477.802 67.2664 457.587 75.9786 465.25 85.2057C474.829 96.7396 489.356 75.9055 510.672 70.0197C531.987 64.134 559.056 79.9707 568.269 103.781C577.483 127.592 568.056 149.36 558.113 150.103C548.17 150.846 547.169 106.251 525.125 101.532C497.69 95.6592 487.982 120.213 481.141 131.981C477.453 139.622 467.899 146.902 461.9 146.572C454.402 146.159 463.926 123.542 463.418 121.919C462.909 120.297 461.433 120.064 459.265 124.348C457.532 127.775 451.716 130.865 449.025 131.981C444.445 126.325 429.592 124.011 424.907 130.35C424.191 128.438 423.788 125.235 422.476 121.944C420.837 117.831 420.285 108.943 419.364 114.965C418.443 120.986 416.493 130.46 414.519 146.572C413.055 158.522 425.148 168.526 429.396 175.364C433.643 182.201 435.512 215.419 433.508 223.582Z" fill="#347B81"/>
<path d="M520.153 185.826C520.153 188.757 514.014 194.07 510.945 196.36L899.745 194.07L867.519 169.797L852.453 156.973L846.593 159.721L839.06 148.271L828.597 141.86L825.249 136.822L820.227 133.616L809.764 129.494L797.627 121.708L788.42 112.548L780.887 109.342L762.945 92.3106H759.622L749.653 103.872L743.007 108.131L737.361 113.922L730.665 114.838L726.48 120.792L718.947 121.708C714.343 126.288 704.801 134.715 703.462 131.784C702.122 128.853 693.417 123.845 689.232 121.708C687.14 115.296 670.818 94.2282 667.888 89.1903C664.958 84.1524 662.029 83.6944 660.773 85.0684C659.769 86.1675 642.777 102.93 634.407 111.174L626.874 109.8C622.828 114.99 614.402 125.738 613.063 127.204C611.389 129.036 604.692 130.409 602.181 131.783C599.67 133.157 594.648 145.981 590.463 148.729C587.115 150.927 575.675 159.415 570.374 163.384C568.7 162.011 555.308 148.271 553.634 148.729C552.294 149.095 545.542 159.568 542.334 164.758C540.939 164.606 537.898 164.667 536.893 166.132C535.638 167.964 530.615 175.292 530.197 177.582C529.778 179.872 520.153 182.162 520.153 185.826Z" fill="#347B81"/>
<path d="M300.269 213.457C291.104 222.879 289.664 278.364 290.09 304.928L285.432 417.632L218.814 414.872C216.076 414.759 210.687 412.435 211.034 404.048C211.381 395.66 196.107 381.842 188.426 375.981L211.756 386.574C208.756 370.697 201.288 339.056 195.418 339.513C189.549 339.97 181.558 335.73 178.296 333.552C175.269 340.428 192.283 349.01 186.808 348.783C182.428 348.602 174.953 340.707 171.764 336.782C169.059 328.502 163.905 314.578 164.932 325.122C166.216 338.303 161.4 344.23 155.203 361.477C149.005 378.723 132.254 385.906 123.968 387.313C115.683 388.72 113.379 378.123 114.508 372.918C115.637 367.714 119.468 363.497 119.793 355.634C120.118 347.771 158.725 320.489 142.118 324.177C125.511 327.865 108.389 321.905 99.4076 318.032C90.4262 314.159 80.9296 300.638 78.5529 291.788C76.6516 284.707 81.1396 280.809 83.6212 279.745C78.3625 274.276 84.199 265.766 86.2046 261.473C88.2103 257.181 85.617 253.573 90.216 252.888C94.815 252.203 90.3604 249.393 94.1912 245.176C97.2559 241.802 105.25 243.009 108.865 244.034C109.442 230.055 118.664 228.103 123.203 228.874C135.136 205.564 153.624 207.963 161.377 212.077C181.023 196.788 192.681 206.664 196.055 213.514C201.57 203.94 212.514 206.027 217.297 208.267C219.631 204.863 223.769 206.494 225.546 207.734C237.965 225.752 233.975 254.468 230.427 266.573L257.47 253.691C258.19 258.388 257.631 271.901 249.637 288.373C241.644 304.845 222.291 301.243 213.614 297.383C212.682 302.245 208.726 305.057 206.865 305.855C216.594 318.161 213.166 330.329 210.236 334.876C210.064 331.66 208.691 323.609 204.57 317.137C199.42 309.047 188.433 309.467 198.074 319.494C205.787 327.515 215.029 358.996 218.686 373.733C219.158 369.669 222.088 357.771 230.024 342.697C237.96 327.622 249.365 331.829 254.076 335.817C249.245 334.741 240.322 336.822 243.279 353.748C246.236 370.674 267.63 361.758 277.957 355.185L284.656 237.313C282.388 225.842 275.88 201.943 267.994 198.115C260.107 194.288 255.359 186.798 253.97 183.531L242.107 183.04C225.717 181.486 217.937 170.661 211.178 157.254C204.419 143.846 207.183 121.206 210.833 121.357C214.483 121.508 208.466 134.387 222.778 141.981C237.091 149.575 245.458 168.301 249.181 166.705C252.159 165.428 250.126 158.576 248.738 155.309C240.153 141.826 238.2 100.612 251.193 95.8987C261.587 92.1285 281.155 108.226 289.639 116.746C294.575 107.907 308.068 91.0793 322.554 94.48C337.04 97.8807 345.638 125.776 348.126 139.299C364.326 123.342 377.03 125.618 383.382 126.757C389.734 127.895 385.001 153.954 373.689 162.237C362.377 170.52 355.772 175.498 351.029 179.677C346.285 183.857 334.829 195.634 323.77 197.802C312.711 199.969 311.726 201.679 300.269 213.457Z" fill="#347B81"/>
</g>
<defs>
<clipPath id="clip0_579_1723">
<rect width="768" height="211" fill="white"/>
</clipPath>
</defs>
</svg>
