<svg width="1920" height="384" viewBox="0 0 1920 384" fill="none" xmlns="http://www.w3.org/2000/svg">
<g clip-path="url(#clip0_566_2306)">
<path d="M1491.6 308.45C1482.4 317.913 1480.95 373.637 1481.38 400.317L1476.7 513.506L1409.84 510.735C1407.09 510.621 1401.68 508.287 1402.03 499.863C1402.38 491.44 1387.05 477.562 1379.34 471.675L1402.76 482.314C1399.74 466.368 1392.25 434.591 1386.36 435.05C1380.47 435.509 1372.45 431.251 1369.17 429.064C1366.14 435.97 1383.21 444.588 1377.72 444.36C1373.32 444.178 1365.82 436.25 1362.62 432.308C1359.9 423.992 1354.73 410.007 1355.76 420.598C1357.05 433.835 1352.22 439.788 1345.99 457.109C1339.77 474.43 1322.96 481.643 1314.65 483.057C1306.33 484.47 1304.02 473.827 1305.15 468.6C1306.28 463.373 1310.13 459.138 1310.45 451.241C1310.78 443.344 1349.53 415.944 1332.86 419.648C1316.19 423.352 1299.01 417.366 1289.99 413.476C1280.98 409.587 1271.45 396.008 1269.06 387.119C1267.15 380.008 1271.66 376.093 1274.15 375.025C1268.87 369.532 1274.73 360.986 1276.74 356.674C1278.76 352.363 1276.15 348.739 1280.77 348.052C1285.38 347.364 1280.91 344.542 1284.76 340.306C1287.83 336.918 1295.86 338.13 1299.49 339.159C1300.07 325.12 1309.32 323.16 1313.88 323.934C1325.85 300.523 1344.41 302.933 1352.19 307.065C1371.91 291.709 1383.61 301.629 1387 308.508C1392.53 298.893 1403.52 300.989 1408.32 303.239C1410.66 299.82 1414.81 301.457 1416.6 302.703C1429.06 320.799 1425.06 349.638 1421.5 361.796L1448.64 348.858C1449.36 353.575 1448.8 367.147 1440.78 383.69C1432.75 400.233 1413.33 396.615 1404.62 392.739C1403.69 397.622 1399.72 400.446 1397.85 401.247C1407.61 413.606 1404.17 425.827 1401.23 430.393C1401.06 427.163 1399.68 419.078 1395.54 412.578C1390.37 404.453 1379.35 404.875 1389.02 414.945C1396.77 423 1406.04 454.617 1409.71 469.418C1410.19 465.336 1413.13 453.387 1421.09 438.248C1429.06 423.109 1440.5 427.333 1445.23 431.338C1440.38 430.258 1431.43 432.348 1434.4 449.347C1437.36 466.346 1458.84 457.392 1469.2 450.79L1475.93 332.41C1473.65 320.889 1467.12 296.887 1459.2 293.043C1451.29 289.199 1446.52 281.677 1445.13 278.396L1433.22 277.902C1416.77 276.341 1408.96 265.47 1402.18 252.005C1395.39 238.539 1398.17 215.802 1401.83 215.953C1405.49 216.105 1399.45 229.039 1413.82 236.666C1428.18 244.293 1436.58 263.1 1440.32 261.497C1443.31 260.214 1441.27 253.332 1439.87 250.052C1431.26 236.51 1429.3 195.118 1442.34 190.385C1452.77 186.599 1472.41 202.766 1480.93 211.323C1485.88 202.445 1499.42 185.545 1513.96 188.96C1528.5 192.376 1537.13 220.391 1539.63 233.972C1555.89 217.946 1568.64 220.233 1575.01 221.376C1581.39 222.519 1576.64 248.691 1565.29 257.01C1553.93 265.329 1547.3 270.328 1542.54 274.525C1537.78 278.722 1526.28 290.551 1515.18 292.728C1504.08 294.905 1503.09 296.621 1491.6 308.45Z" fill="#84BDBE"/>
<path d="M1574.71 313.086C1566.58 321.449 1565.3 370.691 1565.68 394.266L1561.55 494.289L1502.46 491.84C1500.03 491.739 1495.25 489.677 1495.56 482.233C1495.87 474.79 1482.32 462.526 1475.51 457.324L1496.2 466.726C1493.54 452.635 1486.92 424.554 1481.71 424.959C1476.5 425.365 1469.42 421.602 1466.52 419.67C1463.84 425.772 1478.93 433.388 1474.07 433.187C1470.19 433.026 1463.56 426.019 1460.73 422.536C1458.33 415.188 1453.76 402.83 1454.67 412.188C1455.81 423.886 1451.54 429.146 1446.04 444.452C1440.55 459.758 1425.69 466.133 1418.34 467.381C1410.99 468.63 1408.95 459.225 1409.95 454.606C1410.95 449.988 1414.35 446.245 1414.64 439.267C1414.92 432.288 1449.17 408.076 1434.44 411.349C1419.71 414.622 1404.52 409.332 1396.56 405.895C1388.59 402.458 1380.17 390.459 1378.06 382.604C1376.37 376.321 1380.35 372.861 1382.55 371.917C1377.89 367.063 1383.07 359.511 1384.85 355.701C1386.63 351.891 1384.33 348.689 1388.4 348.081C1392.48 347.474 1388.53 344.98 1391.93 341.237C1394.65 338.243 1401.74 339.313 1404.94 340.223C1405.46 327.817 1413.64 326.085 1417.66 326.77C1428.24 306.082 1444.64 308.211 1451.52 311.862C1468.94 298.293 1479.28 307.058 1482.28 313.137C1487.17 304.641 1496.87 306.493 1501.12 308.481C1503.19 305.46 1506.86 306.907 1508.43 308.008C1519.45 323.999 1515.91 349.483 1512.76 360.227L1536.75 348.794C1537.38 352.962 1536.89 364.955 1529.8 379.574C1522.71 394.193 1505.54 390.996 1497.85 387.57C1497.02 391.885 1493.51 394.381 1491.86 395.089C1500.49 406.01 1497.45 416.809 1494.85 420.844C1494.7 417.99 1493.48 410.845 1489.83 405.102C1485.26 397.922 1475.51 398.295 1484.07 407.193C1490.91 414.311 1499.1 442.25 1502.35 455.33C1502.77 451.723 1505.36 441.163 1512.4 427.785C1519.44 414.407 1529.56 418.14 1533.74 421.679C1529.45 420.725 1521.54 422.572 1524.16 437.593C1526.78 452.615 1545.76 444.702 1554.92 438.868L1560.86 334.259C1558.85 324.078 1553.07 302.868 1546.08 299.471C1539.09 296.075 1534.87 289.427 1533.64 286.528L1523.12 286.092C1508.58 284.713 1501.68 275.106 1495.69 263.207C1489.69 251.308 1492.14 231.215 1495.38 231.35C1498.62 231.484 1493.28 242.913 1505.98 249.653C1518.67 256.393 1526.09 273.011 1529.39 271.595C1532.04 270.462 1530.23 264.38 1529 261.481C1521.39 249.515 1519.66 212.938 1531.18 208.756C1540.4 205.41 1557.75 219.696 1565.28 227.258C1569.66 219.413 1581.62 204.479 1594.47 207.497C1607.32 210.515 1614.94 235.271 1617.15 247.273C1631.52 233.111 1642.79 235.131 1648.42 236.142C1654.05 237.152 1649.86 260.279 1639.82 267.63C1629.79 274.981 1623.93 279.399 1619.73 283.108C1615.52 286.817 1605.36 297.27 1595.55 299.193C1585.74 301.117 1584.87 302.634 1574.71 313.086Z" fill="#84BDBE"/>
<path d="M547.443 298.711L525.912 384.237L536.763 390.58L544.612 355.232C546.667 357.531 553.709 363.941 565.441 371.185C580.106 380.24 648.043 361.779 617.521 331.16C593.103 306.664 560.287 327.888 546.932 341.562L561.798 297.942C577.041 302.835 611.687 312.241 628.325 310.718C649.123 308.815 679.253 281.992 648.451 259.406C623.81 241.337 581.38 270.632 563.245 287.538C567.221 283.049 570.92 264.49 572.272 255.772C572.856 254.587 579.589 251.372 601.849 247.992C629.674 243.767 651.903 222.532 654.523 212.734C657.142 202.935 659.458 186.29 644.204 175.444C628.95 164.598 606.478 180.436 601.766 200.374C598.509 214.156 580.055 238.975 572.256 246.844C572.73 238.416 573.261 217.925 571.595 203.387C569.512 185.215 579.423 156.136 581.149 137.698C582.874 119.261 572.587 99.8285 557.349 97.9114C542.111 95.9942 522.491 101.479 528.134 145.276C533.776 189.074 556.91 182.428 563.389 202.126C568.573 217.885 567.358 237.874 566.102 245.898C565.708 243.712 561.98 233.958 550.223 212.429C535.528 185.517 527.023 180.385 514.41 171.646C501.797 162.906 477.485 165.97 478.405 189.489C479.325 213.008 498.381 220.613 525.059 230.664C551.737 240.715 556.435 246.113 559.969 256.857C562.796 265.453 556.3 281.229 552.699 288.043C541.245 271.973 515.17 238.494 502.505 233.147C486.672 226.463 472.028 229.313 467.652 239.691C463.275 250.07 466.226 262 477.387 278.167C486.316 291.101 527.812 297.252 547.443 298.711Z" fill="#84BDBE"/>
<path d="M1746.35 291.295C1754.63 302.53 1745.96 344.347 1740.6 363.851C1739.83 365.802 1738.76 370.873 1740.6 375.554C1742.9 381.406 1811.92 398.959 1822.27 393.108C1832.62 387.257 1790.06 315.871 1795.81 291.295C1800.41 271.635 1800.8 235.514 1800.41 219.911H1839.53C1903.95 215.23 2035.09 114.587 1991.37 104.056C1956.4 95.6308 1880.94 113.808 1847.58 123.95C1861 92.353 1885.08 28.6908 1874.04 26.8184C1860.23 24.4779 1802.72 87.6715 1775.11 114.587C1753.02 136.119 1740.6 138.382 1737.15 136.822C1728.33 127.46 1704.7 109.906 1680.78 114.587C1656.85 119.268 1650.1 143.843 1649.72 155.546C1631.31 160.227 1595.65 174.27 1579.55 189.483C1566.66 201.654 1569.58 203.916 1572.64 203.526C1595.65 187.143 1641.66 167.249 1668.12 170.759C1694.58 174.27 1696.88 203.526 1702.63 231.613C1708.39 259.699 1735.99 277.252 1746.35 291.295Z" fill="#84BDBE"/>
<path d="M337.209 348.585C325.362 360.773 323.5 432.541 324.051 466.902L318.03 612.682L231.914 609.112C228.375 608.965 221.409 605.96 221.857 595.111C222.305 584.262 202.561 566.388 192.633 558.807L222.791 572.509C218.912 551.972 209.259 511.045 201.672 511.636C194.084 512.228 183.755 506.743 179.538 503.927C175.626 512.821 197.619 523.921 190.541 523.627C184.879 523.393 175.217 513.181 171.094 508.105C167.597 497.394 160.936 479.383 162.263 493.022C163.923 510.072 157.698 517.738 149.686 540.046C141.675 562.354 120.021 571.645 109.311 573.465C98.6006 575.285 95.6218 561.577 97.0814 554.846C98.5411 548.114 103.493 542.659 103.913 532.488C104.333 522.318 154.239 487.03 132.772 491.8C111.305 496.57 89.1716 488.86 77.5618 483.851C65.9519 478.842 53.6759 461.352 50.6037 449.905C48.1459 440.747 53.9474 435.705 57.1554 434.328C50.3575 427.254 57.9022 416.247 60.4948 410.694C63.0875 405.141 59.7353 400.474 65.6802 399.589C71.6251 398.703 65.8669 395.068 70.8188 389.614C74.7804 385.25 85.1147 386.81 89.7866 388.136C90.5334 370.054 102.454 367.53 108.322 368.528C123.747 338.376 147.646 341.48 157.667 346.801C183.063 327.024 198.134 339.8 202.494 348.659C209.623 336.276 223.77 338.976 229.953 341.873C232.971 337.47 238.319 339.579 240.617 341.183C256.67 364.489 251.512 401.632 246.927 417.29L281.883 400.627C282.814 406.703 282.092 424.182 271.759 445.488C261.425 466.795 236.409 462.135 225.192 457.142C223.987 463.432 218.874 467.069 216.468 468.101C229.045 484.018 224.614 499.758 220.826 505.638C220.604 501.478 218.828 491.066 213.502 482.694C206.844 472.23 192.642 472.773 205.104 485.742C215.075 496.117 227.021 536.837 231.749 555.9C232.36 550.643 236.146 535.253 246.405 515.755C256.664 496.256 271.407 501.698 277.496 506.855C271.251 505.465 259.717 508.156 263.54 530.049C267.362 551.943 295.017 540.41 308.366 531.908L317.027 379.443C314.095 364.606 305.682 333.692 295.487 328.742C285.293 323.791 279.155 314.103 277.36 309.878L262.024 309.242C240.837 307.232 230.78 293.23 222.043 275.888C213.306 258.545 216.879 229.261 221.598 229.457C226.316 229.652 218.538 246.31 237.039 256.133C255.54 265.956 266.357 290.177 271.169 288.113C275.018 286.461 272.391 277.598 270.596 273.373C259.499 255.932 256.974 202.622 273.769 196.527C287.206 191.65 312.5 212.472 323.468 223.492C329.848 212.059 347.291 190.293 366.016 194.691C384.741 199.09 395.855 235.172 399.072 252.664C420.013 232.023 436.435 234.968 444.646 236.44C452.857 237.913 446.738 271.62 432.116 282.334C417.493 293.048 408.956 299.486 402.824 304.892C396.692 310.298 381.883 325.533 367.587 328.336C353.291 331.14 352.018 333.351 337.209 348.585Z" fill="#84BDBE"/>
<path d="M1920.09 384H-3.499C-7.49879 330 1.50432 257.998 1.50232 242C1.49593 190.869 45.5421 282.135 70.515 304.086C77.2401 298.453 91.4558 292.879 118.856 287.288C166.408 277.585 276.488 276.615 360.614 283.725C427.622 252.184 543.826 234.888 552.001 313C586.903 212.334 751.568 332.823 756.886 353.631C782.647 333.948 771.46 304.271 879.952 275.477C988.445 246.683 1115.29 258.782 1135.07 282.777C1382.87 263.672 1474.76 247.359 1540.58 275.477C1580.63 292.536 1783.54 165.647 1939.5 153.5C2095.46 141.353 1944.19 349.132 1920.09 384Z" fill="#84BDBE"/>
<path d="M1509.57 276H1461.79L1463.06 270.66V260.662C1464.14 264.6 1466.31 272.114 1466.31 270.66V260.662C1464.94 255.738 1463.34 248.664 1467.86 259.753C1468.93 262.362 1469.69 264.523 1470.21 266.304C1470.23 266.242 1470.25 266.179 1470.27 266.115C1472.87 258.207 1471.35 244.187 1470.27 238.165C1471.02 239.68 1472.7 244.483 1473.38 251.572C1474.06 258.662 1473.1 267.251 1472.53 270.66H1480.17C1479.27 270.66 1477.28 268.069 1476.49 257.708C1475.7 247.346 1477.86 237.029 1479.03 233.166V242.028C1478.92 250.845 1483.61 262.214 1485.96 266.797C1487.09 262.888 1486.43 252.292 1485.96 247.482C1486.43 248.239 1487.38 250.959 1487.38 255.776C1487.38 260.593 1488.6 264.676 1489.21 266.115C1493.6 261.571 1489.92 252.027 1489.21 247.482C1488.71 244.244 1487.95 239.624 1487.52 237.074C1487.42 236.638 1487.38 236.368 1487.38 236.234C1487.42 236.478 1487.47 236.76 1487.52 237.074C1487.84 238.489 1488.8 241.643 1491.05 247.482C1493.99 255.117 1493.22 264.525 1492.47 268.274C1494.28 264.002 1495.11 240.665 1495.29 229.531C1497.56 237.484 1496.71 267.479 1497.13 263.275C1497.56 259.071 1503.35 236.007 1500.67 249.754C1498.52 260.752 1499.77 267.365 1500.67 269.296H1503.35L1502.22 257.708V233.166C1502.55 235.59 1503.24 242.483 1503.35 250.663C1503.47 258.844 1505.66 267.403 1506.75 270.66L1508.3 246.459V264.07C1508.3 268.797 1509.15 273.993 1509.57 276Z" fill="#84BDBE"/>
<path d="M722.423 365.573C719.803 376.251 708.943 375.628 703.84 373.982C693.5 383.441 703.657 388.659 710.029 390.086L911.238 415.568C921.114 412.926 940.253 398.723 937.797 363.042C935.342 327.36 921.813 307.607 926.033 301.551C951.153 292.41 976.939 250.132 979.937 235.9C989.794 179.475 981.638 148.008 942.647 112.973C901.798 76.2683 839.117 92.1968 815.055 101.421C794.801 109.986 761.77 124.231 774.291 139.318C789.943 158.177 813.682 124.111 848.512 114.488C883.343 104.864 927.573 130.758 942.629 169.69C957.685 208.623 942.281 244.215 926.033 245.43C909.785 246.645 908.15 173.729 872.13 166.013C827.299 156.41 811.435 196.557 800.258 215.799C794.231 228.292 778.619 240.196 768.817 239.656C756.565 238.981 772.127 202 771.297 199.347C770.466 196.694 768.054 196.314 764.512 203.318C761.679 208.921 752.176 213.974 747.778 215.799C740.295 206.55 716.024 202.768 708.37 213.132C707.2 210.006 706.54 204.768 704.397 199.388C701.718 192.662 700.816 178.129 699.312 187.976C697.807 197.822 694.62 213.311 691.394 239.655C689.002 259.196 708.763 275.552 715.703 286.733C722.644 297.913 725.698 352.225 722.423 365.573Z" fill="#84BDBE"/>
<path d="M-24.8168 221.223C-66.0448 248.607 -93.8542 299.192 -102.605 321.061C-7.31441 318.525 249.275 303.274 243.052 294.146C235.273 282.736 174.516 266.863 178.406 249.748C182.295 232.632 186.185 227.878 205.632 225.026C225.079 222.173 232.858 204.107 229.941 201.255C227.024 198.402 226.051 202.206 210.494 172.73C194.936 143.254 168.682 152.762 162.848 150.86C157.014 148.959 153.125 114.729 138.539 61.4814C123.954 8.23366 88.949 -20.2908 87.0043 16.792C85.0596 53.8747 153.125 150.86 141.456 150.86C129.788 150.86 67.5571 61.4821 41.3035 51.0229C15.0498 40.5637 16.9945 89.0565 55.8889 114.729L56.195 114.931C95.2499 140.71 184.067 199.334 118.12 191.747C51.9994 184.14 26.7181 186.993 -24.8168 221.223Z" fill="#84BDBE"/>
<path d="M972.058 279.301C972.058 282.693 964.957 288.84 961.406 291.49L1411.19 288.841L1373.91 260.753L1356.48 245.915L1349.7 249.094L1340.98 235.846L1328.88 228.426L1325.01 222.597L1319.2 218.887L1307.09 214.117L1293.05 205.108L1282.4 194.509L1273.69 190.799L1252.93 171.092H1249.09L1237.55 184.469L1229.86 189.398L1223.33 196.099L1215.59 197.159L1210.75 204.048L1202.03 205.108C1196.71 210.408 1185.67 220.159 1184.12 216.767C1182.57 213.376 1172.5 207.581 1167.66 205.108C1165.24 197.689 1146.35 173.311 1142.96 167.481C1139.58 161.652 1136.19 161.122 1134.73 162.712C1133.57 163.984 1113.92 183.38 1104.23 192.919L1095.52 191.329C1090.84 197.335 1081.09 209.772 1079.54 211.467C1077.6 213.587 1069.86 215.177 1066.95 216.767C1064.05 218.357 1058.24 233.196 1053.4 236.375C1049.52 238.918 1036.29 248.74 1030.16 253.333C1028.22 251.744 1012.73 235.845 1010.79 236.375C1009.24 236.799 1001.43 248.917 997.718 254.923C996.104 254.746 992.586 254.817 991.424 256.513C989.971 258.633 984.162 267.112 983.677 269.762C983.193 272.411 972.058 275.061 972.058 279.301Z" fill="#84BDBE"/>
</g>
<defs>
<clipPath id="clip0_566_2306">
<rect width="1920" height="384" fill="white"/>
</clipPath>
</defs>
</svg>
